<mxfile host="app.diagrams.net" modified="2023-12-20T09:19:48.595Z" agent="Mozilla/5.0 (Windows NT 10.0; Win64; x64) AppleWebKit/537.36 (KHTML, like Gecko) Chrome/120.0.0.0 Safari/537.36" version="22.1.11" etag="L_u3a43iaD2g_mTflF9A" type="github">
  <diagram name="Page-1" id="LlnRkp3_Tz6MMjDy3kq6">
    <mxGraphModel>
      <root>
        <mxCell id="0" />
        <mxCell id="1" parent="0" />
      </root>
    </mxGraphModel>
  </diagram>
</mxfile>
